<?xml version="1.0" standalone="no"?>
<!DOCTYPE svg PUBLIC "-//W3C//DTD SVG 20010904//EN"
 "http://www.w3.org/TR/2001/REC-SVG-20010904/DTD/svg10.dtd">
<svg version="1.0" xmlns="http://www.w3.org/2000/svg"
 width="249.000000pt" height="249.000000pt" viewBox="0 0 249.000000 249.000000"
 preserveAspectRatio="xMidYMid meet">
<metadata>
Created by potrace 1.14, written by Peter Selinger 2001-2017
</metadata>
<g transform="translate(0.000000,249.000000) scale(0.100000,-0.100000)"
fill="#000000" stroke="none">
<path d="M1258 2365 c-8 -8 0 -34 17 -55 6 -8 20 -37 30 -65 10 -27 21 -54 25
-60 7 -10 16 -41 34 -125 3 -11 8 -25 12 -32 4 -6 8 -25 10 -42 2 -17 8 -65
15 -106 6 -41 13 -105 14 -142 2 -37 5 -71 8 -75 3 -5 2 -15 -3 -22 -4 -8 -4
-26 0 -40 4 -15 7 -77 6 -139 -1 -69 3 -112 9 -112 6 0 4 -4 -3 -8 -9 -6 -14
-47 -16 -138 -3 -71 -9 -174 -15 -229 -6 -55 -13 -118 -15 -140 -3 -22 -7 -53
-11 -70 -3 -16 -7 -37 -8 -45 -3 -22 -30 -40 -46 -30 -7 4 -28 4 -45 0 -17 -4
-37 -5 -44 -2 -17 5 -50 73 -47 94 2 10 -1 18 -6 18 -5 0 -12 18 -15 40 -4 22
-10 40 -15 40 -5 0 -9 13 -9 29 0 17 -5 33 -11 36 -5 4 -8 12 -6 18 2 7 0 23
-5 37 -5 14 -11 36 -13 50 -2 14 -9 48 -15 75 -18 78 -30 146 -35 195 -3 25
-8 54 -11 65 -21 71 -21 542 0 633 4 19 10 43 12 55 8 53 16 84 26 104 6 12 8
29 5 37 -4 9 -3 16 1 16 9 0 35 60 33 77 -1 6 3 14 9 18 5 3 10 13 10 20 0 23
-52 15 -82 -14 -16 -13 -28 -21 -28 -16 0 4 -14 -10 -31 -31 -16 -22 -39 -50
-50 -64 -28 -35 -62 -90 -78 -125 -7 -16 -17 -38 -22 -47 -5 -10 -9 -25 -9
-33 0 -8 -3 -15 -7 -15 -5 0 -9 -10 -10 -22 -1 -13 -7 -48 -14 -78 -23 -97
-13 -480 12 -496 5 -3 9 -20 9 -38 0 -18 3 -36 7 -40 4 -4 8 -17 8 -29 2 -28
35 -138 47 -153 5 -7 10 -20 12 -30 8 -38 12 -48 47 -120 20 -41 32 -74 27
-74 -5 0 0 -13 11 -28 11 -16 21 -35 23 -43 2 -8 5 -16 8 -19 10 -10 30 -50
30 -61 0 -6 6 -17 13 -24 36 -41 37 -43 22 -55 -23 -19 -58 -7 -97 32 -21 20
-38 39 -38 41 0 3 -15 20 -32 39 -39 40 -168 230 -168 246 0 7 -4 12 -9 12 -8
0 -54 85 -55 103 -1 4 -5 11 -11 15 -5 4 -11 14 -13 22 -2 8 -10 29 -17 45
-19 43 -53 147 -53 165 -1 15 -9 55 -12 55 -9 0 -14 159 -7 240 7 76 46 213
69 243 6 6 7 12 2 12 -5 0 -4 4 1 8 13 9 67 92 60 92 -18 0 161 181 203 205
17 11 32 23 32 27 0 4 7 8 15 8 8 0 15 4 15 9 0 5 -13 9 -30 9 -16 -1 -30 -4
-30 -8 0 -3 -25 -17 -55 -29 -51 -21 -158 -86 -198 -121 -51 -43 -115 -109
-137 -140 -13 -19 -29 -40 -35 -47 -5 -7 -15 -18 -20 -25 -11 -14 -68 -127
-72 -143 -1 -5 -11 -44 -22 -85 -24 -88 -26 -190 -7 -275 8 -33 12 -63 10 -67
-3 -5 0 -8 5 -8 6 0 11 -8 11 -18 0 -10 14 -46 30 -81 17 -34 31 -67 33 -73 1
-6 14 -24 29 -41 15 -17 25 -33 23 -37 -2 -3 12 -24 31 -45 19 -21 34 -42 34
-45 0 -9 159 -168 200 -200 18 -14 44 -35 58 -48 15 -13 52 -40 82 -60 96 -64
201 -176 186 -200 -2 -4 0 -28 6 -53 14 -64 16 -89 7 -95 -4 -2 -5 -12 -2 -20
3 -9 7 -48 8 -88 1 -39 2 -78 3 -87 2 -21 78 -42 151 -43 76 0 141 7 147 15 2
4 13 5 24 2 11 -3 20 0 20 6 0 6 3 10 8 10 27 -5 40 5 47 34 10 38 9 63 0 97
-4 14 -6 78 -6 143 0 70 -4 117 -10 117 -20 0 78 119 196 238 67 67 120 122
117 122 -2 0 10 14 27 32 17 17 33 40 37 50 3 10 9 18 13 18 10 0 66 82 63 93
-1 4 2 7 7 7 5 0 17 18 27 40 10 22 21 40 26 40 4 0 8 9 8 20 0 11 5 20 12 20
6 0 9 3 5 6 -3 3 3 23 14 44 11 20 22 46 24 56 2 11 12 46 21 79 26 96 24 262
-6 355 -13 41 -26 77 -30 80 -3 3 -16 25 -28 50 -13 25 -35 60 -50 79 -37 46
-133 142 -167 166 -16 11 -33 25 -39 30 -19 16 -66 43 -156 87 -82 41 -130 54
-130 36 0 -4 6 -8 13 -8 7 0 22 -8 33 -18 10 -10 37 -31 59 -47 63 -46 130
-117 185 -195 13 -19 28 -38 33 -41 5 -3 9 -10 9 -15 0 -11 14 -43 27 -64 10
-15 18 -39 19 -53 0 -4 7 -18 15 -30 7 -12 12 -34 10 -49 -2 -16 0 -28 5 -28
15 0 23 -199 12 -285 -6 -44 -13 -96 -15 -115 -2 -19 -8 -36 -13 -38 -5 -1 -7
-14 -4 -27 2 -15 0 -25 -7 -25 -6 0 -11 -11 -11 -25 0 -14 -6 -28 -14 -31 -8
-3 -13 -11 -10 -18 3 -8 -4 -31 -14 -52 -11 -22 -26 -54 -33 -72 -8 -17 -17
-32 -21 -32 -5 0 -8 -6 -8 -12 0 -17 -137 -242 -166 -274 -13 -14 -24 -29 -24
-35 0 -5 -6 -9 -12 -10 -7 0 -25 -2 -40 -4 -27 -4 -36 4 -21 19 4 3 8 15 10
26 1 10 11 34 21 52 10 18 22 47 27 63 5 17 9 32 10 35 1 3 6 20 10 38 4 17
11 32 15 32 7 0 13 23 23 82 2 9 8 23 15 31 7 7 9 17 5 20 -3 4 -1 13 5 20 7
8 10 16 7 19 -3 3 5 36 17 74 12 38 20 79 19 91 -1 13 1 28 6 35 4 7 9 33 10
58 1 25 4 65 8 90 12 92 8 221 -9 249 -5 8 -3 17 5 22 11 7 11 9 1 9 -7 0 -10
5 -7 10 9 15 -21 141 -50 205 -13 31 -25 59 -26 63 -5 20 -23 52 -30 52 -4 0
-9 10 -13 23 -3 12 -17 36 -31 52 -41 48 -125 135 -131 135 -3 0 -20 11 -38
25 -32 25 -105 43 -118 30z m196 -1830 c21 -27 26 -74 11 -122 -6 -20 -13 -22
-80 -20 l-72 1 2 63 c1 35 8 70 16 79 32 39 92 38 123 -1z m-206 6 c12 -10 22
-23 22 -30 0 -6 4 -11 8 -11 5 0 8 -24 8 -52 l-1 -53 -43 0 c-23 0 -42 -4 -42
-8 0 -11 -43 -4 -52 8 -4 6 -8 24 -8 42 0 17 -4 34 -9 37 -4 3 -3 21 3 40 6
19 14 32 18 30 4 -3 8 0 8 5 0 18 66 12 88 -8z"/>
</g>
</svg>
